<svg width="255" height="51" viewBox="0 0 255 51" fill="none" xmlns="http://www.w3.org/2000/svg">
<g clip-path="url(#clip0_4443_579)">
<path d="M35.5431 42.9148C31.8543 42.9148 28.313 27.6516 27.1326 23.6505C25.5959 18.4418 22.881 7.36442 16.7598 3.90495C15.7058 3.30927 14.4949 3.05243 13.2855 3.05243L7.03737 3.05247C5.48571 3.05247 3.97322 3.53278 2.70345 4.42852C1.671 5.1568 0.539169 6.07093 -0.0172119 6.90533C6.47513 6.46077 10.7672 19.5515 12.7226 26.4056C14.6901 33.3024 18.8696 48.9905 25.9522 48.9905H34.3627C37.7564 48.9905 40.4124 42.9148 40.4124 42.9148L39.0844 39.5065C39.0844 39.5065 38.1991 42.9148 35.5431 42.9148Z" fill="black"/>
<path d="M59.742 42.9148C56.0558 42.7741 52.5119 27.6516 51.3315 23.6505C49.7947 18.4418 47.0799 7.36442 40.9586 3.90495C39.9046 3.30927 38.6938 3.05243 37.4843 3.05243L31.2362 3.05247C29.6846 3.05247 28.1721 3.53278 26.9023 4.42852C25.8699 5.1568 24.738 6.07093 24.1816 6.90533C30.674 6.46077 34.9661 19.5515 36.9214 26.4056C38.889 33.3024 43.0685 48.9905 50.151 48.9905H58.5616C65.9853 48.9905 68.3461 27.5034 68.3461 27.5034L66.723 27.0588C66.723 27.0588 63.6244 43.063 59.742 42.9148Z" fill="black"/>
<mask id="mask0_4443_579" style="mask-type:luminance" maskUnits="userSpaceOnUse" x="49" y="3" width="37" height="24">
<path d="M66.3943 3.05243H57.1126C51.6726 3.05243 49.4399 11.471 49.4399 11.471L50.9348 15.352C50.9348 15.352 52.5569 8.84374 55.81 9.1281C62.5916 9.72091 59.0503 26.0215 72.2574 26.0215H79.1526C83.249 26.0215 85.7574 21.5758 85.7574 21.5758C74.9861 22.0204 77.7896 3.05243 66.3943 3.05243Z" fill="white"/>
</mask>
<g mask="url(#mask0_4443_579)">
<path d="M66.3943 3.05243H57.1126C51.6726 3.05243 49.4399 11.471 49.4399 11.471L50.9348 15.352C50.9348 15.352 52.5569 8.84374 55.81 9.1281C62.5916 9.72091 59.0503 26.0215 72.2574 26.0215H79.1526C83.249 26.0215 85.7574 21.5758 85.7574 21.5758C74.9861 22.0204 77.7896 3.05243 66.3943 3.05243Z" fill="#FFD000"/>
</g>
<mask id="mask1_4443_579" style="mask-type:luminance" maskUnits="userSpaceOnUse" x="49" y="3" width="37" height="24">
<path d="M66.3943 3.05243H57.1126C51.6726 3.05243 49.4399 11.471 49.4399 11.471L50.9348 15.352C50.9348 15.352 52.5569 8.84374 55.81 9.1281C62.5916 9.72091 59.0503 26.0215 72.2574 26.0215H79.1526C83.249 26.0215 85.7574 21.5758 85.7574 21.5758C74.9861 22.0204 77.7896 3.05243 66.3943 3.05243Z" fill="white"/>
</mask>
<g mask="url(#mask1_4443_579)">
<path d="M62.2628 3.05243H52.9812C47.5412 3.05243 45.3085 11.471 45.3085 11.471L46.8034 15.352C46.8034 15.352 48.4255 8.84374 51.6785 9.1281C58.4601 9.72091 54.9188 26.0215 68.1259 26.0215H75.0211C79.1176 26.0215 81.626 21.5758 81.626 21.5758C70.8546 22.0204 73.6581 3.05243 62.2628 3.05243Z" fill="#DE0A14"/>
</g>
<mask id="mask2_4443_579" style="mask-type:luminance" maskUnits="userSpaceOnUse" x="49" y="3" width="37" height="24">
<path d="M66.3943 3.05243H57.1126C51.6726 3.05243 49.4399 11.471 49.4399 11.471L50.9348 15.352C50.9348 15.352 52.5569 8.84374 55.81 9.1281C62.5916 9.72091 59.0503 26.0215 72.2574 26.0215H79.1526C83.249 26.0215 85.7574 21.5758 85.7574 21.5758C74.9861 22.0204 77.7896 3.05243 66.3943 3.05243Z" fill="white"/>
</mask>
<g mask="url(#mask2_4443_579)">
<path d="M58.1313 3.05243H48.8496C43.4096 3.05243 50.7873 26.0215 63.9944 26.0215H70.8896C74.9861 26.0215 77.4945 21.5758 77.4945 21.5758C66.7231 22.0204 69.5266 3.05243 58.1313 3.05243Z" fill="black"/>
</g>
<path d="M95.3815 21.9756V20.1439C95.6878 20.1262 95.9645 20.0944 96.2124 20.0492C96.4598 20.0035 96.6674 19.9042 96.834 19.7499C97.0007 19.596 97.1288 19.3606 97.2189 19.0431C97.3089 18.7261 97.3539 18.2869 97.3539 17.7251V7.05571C97.3539 6.80207 97.3563 6.55265 97.3609 6.30791C97.3651 6.06357 97.3721 5.83048 97.3809 5.60808C97.3897 5.38618 97.4013 5.18429 97.4148 5.0034C97.4282 4.82206 97.444 4.67238 97.4621 4.55493L95.3815 4.63604V2.51939L103.447 2.49237C104.663 2.49237 105.768 2.61917 106.763 2.87187C107.759 3.12502 108.648 3.477 109.432 3.92831C110.215 4.38006 110.895 4.91298 111.471 5.52697C112.048 6.14145 112.525 6.80301 112.904 7.51214C113.282 8.22078 113.563 8.96161 113.748 9.73365C113.932 10.5062 114.025 11.2759 114.025 12.0438C114.025 12.7953 113.939 13.5632 113.768 14.3464C113.597 15.1301 113.329 15.891 112.964 16.6295C112.6 17.3675 112.133 18.0603 111.566 18.7083C110.999 19.356 110.319 19.9219 109.526 20.4063C108.733 20.8912 107.822 21.2735 106.791 21.5542C105.759 21.8353 104.6 21.9756 103.312 21.9756H95.3815ZM101.245 19.9135C101.38 19.9042 101.562 19.8995 101.792 19.8995C102.022 19.8995 102.265 19.9042 102.522 19.9135C102.778 19.9224 103.03 19.9294 103.278 19.9336C103.526 19.9383 103.731 19.9406 103.893 19.9406C104.901 19.9406 105.768 19.7345 106.493 19.3219C107.218 18.9098 107.815 18.362 108.283 17.6775C108.752 16.9936 109.098 16.2118 109.323 15.333C109.549 14.4541 109.661 13.5525 109.661 12.628C109.661 11.2055 109.515 9.97794 109.222 8.94529C108.929 7.91215 108.511 7.05805 107.966 6.38295C107.421 5.70835 106.761 5.20295 105.987 4.86775C105.212 4.53254 104.348 4.35115 103.393 4.32413C103.339 4.32413 103.285 4.32413 103.231 4.32413C102.952 4.32413 102.704 4.34229 102.488 4.37822C102.235 4.4239 102.026 4.52786 101.86 4.69104C101.693 4.85421 101.567 5.09432 101.481 5.41136C101.396 5.72836 101.353 6.15404 101.353 6.6888V17.4123C101.353 17.6664 101.35 17.9153 101.346 18.1601C101.342 18.4044 101.335 18.638 101.326 18.8599C101.317 19.0823 101.305 19.2837 101.292 19.4646C101.279 19.6459 101.263 19.7956 101.245 19.9135Z" fill="black"/>
<path d="M115.17 15.056C115.17 14.0793 115.334 13.1455 115.662 12.2545C115.989 11.3636 116.454 10.5743 117.055 9.88658C117.656 9.19939 118.382 8.65204 119.232 8.24502C120.082 7.838 121.029 7.63477 122.074 7.63477C122.587 7.63477 123.098 7.68 123.607 7.77042C124.116 7.86089 124.602 8.01238 125.066 8.22497C125.53 8.4376 125.962 8.71544 126.363 9.05906C126.764 9.40312 127.108 9.82831 127.396 10.3346C127.694 10.8414 127.923 11.4382 128.086 12.1254C128.248 12.7767 128.324 13.5231 128.315 14.3642C128.315 14.4094 128.315 14.4546 128.315 14.4998L119.223 14.6626C119.223 15.4225 119.293 16.126 119.433 16.7726C119.572 17.4193 119.795 17.9755 120.101 18.4412C120.407 18.907 120.808 19.2734 121.304 19.5401C121.799 19.8072 122.407 19.9406 123.127 19.9406C123.406 19.9406 123.717 19.9042 124.059 19.832C124.402 19.7597 124.751 19.6422 125.107 19.479C125.462 19.3163 125.82 19.1014 126.181 18.8347C126.541 18.5681 126.878 18.2403 127.194 17.851L128.437 19.0315C127.941 19.7462 127.414 20.3252 126.856 20.7681C126.297 21.2115 125.737 21.5551 125.174 21.7994C124.611 22.0437 124.057 22.2083 123.513 22.2945C122.968 22.3803 122.461 22.4232 121.993 22.4232C120.975 22.4232 120.048 22.2516 119.212 21.9076C118.375 21.5639 117.656 21.0712 117.055 20.4287C116.454 19.7867 115.989 19.0133 115.662 18.1088C115.334 17.2043 115.17 16.1871 115.17 15.056ZM119.412 12.7091H124.506C124.487 12.1389 124.42 11.6554 124.303 11.2573C124.186 10.8591 124.026 10.536 123.823 10.2871C123.62 10.0386 123.384 9.85956 123.114 9.75092C122.844 9.64274 122.547 9.5882 122.222 9.5882C121.817 9.5882 121.454 9.66513 121.135 9.819C120.815 9.97282 120.538 10.1855 120.304 10.4568C120.069 10.7281 119.878 11.0559 119.73 11.4405C119.581 11.8247 119.475 12.2475 119.412 12.7091Z" fill="black"/>
<path d="M128.92 10.7416V8.59794C129.561 8.59794 130.126 8.57231 130.618 8.52056C131.109 8.4688 131.528 8.40446 131.876 8.32707C132.223 8.24969 132.503 8.16579 132.715 8.07532C132.927 7.98535 133.082 7.89722 133.181 7.81097H134.689V16.3181C134.689 17.5391 134.845 18.4342 135.156 19.0044C135.468 19.5741 135.976 19.859 136.681 19.859C136.906 19.859 137.141 19.8249 137.385 19.7574C137.629 19.6893 137.868 19.5946 138.103 19.4725C138.338 19.3503 138.562 19.2077 138.774 19.045C138.986 18.8823 139.174 18.7107 139.336 18.5293V13.0886C139.336 12.7543 139.343 12.3697 139.357 11.9356C139.37 11.5016 139.399 11.0764 139.444 10.66L137.499 10.7416V8.59794C138.139 8.59794 138.702 8.57231 139.188 8.52056C139.674 8.4688 140.091 8.40446 140.437 8.32707C140.784 8.24969 141.063 8.16579 141.275 8.07532C141.486 7.98535 141.642 7.89722 141.741 7.81097H143.254V17.5121C143.245 18.0272 143.236 18.3937 143.227 18.6109C143.218 18.8277 143.207 19.052 143.193 19.2823C143.18 19.5131 143.164 19.7326 143.146 19.9406L144.943 19.859V21.9756H139.688L139.539 20.5238H139.512C139.232 20.7681 138.941 21.0054 138.638 21.2362C138.335 21.467 138.015 21.6702 137.676 21.8469C137.338 22.0232 136.976 22.163 136.593 22.2675C136.209 22.371 135.796 22.4232 135.353 22.4232C134.535 22.4232 133.837 22.3034 133.258 22.0638C132.678 21.8241 132.204 21.4558 131.836 20.9579C131.468 20.4609 131.198 19.8249 131.028 19.052C130.857 18.2785 130.771 17.3535 130.771 16.277V13.0886C130.771 12.7543 130.778 12.3697 130.791 11.9356C130.805 11.5016 130.834 11.0764 130.879 10.66L128.92 10.7416Z" fill="black"/>
<path d="M145.264 10.4022V8.08231C145.742 8.07345 146.188 7.95317 146.602 7.72282C147.016 7.49206 147.388 7.20487 147.716 6.86126C148.045 6.51768 148.324 6.14187 148.554 5.7349C148.784 5.32788 148.953 4.94789 149.061 4.59546H151.101L151.087 8.08231H154.627V10.226L151.088 10.294C151.078 11.6055 151.071 12.6932 151.067 13.5566C151.062 14.4205 151.058 15.1129 151.053 15.6327C151.049 16.153 151.047 16.5236 151.047 16.7451C151.047 16.967 151.047 17.0957 151.047 17.1321C151.047 17.4575 151.067 17.781 151.107 18.1018C151.148 18.423 151.229 18.7125 151.351 18.9704C151.472 19.2282 151.643 19.4361 151.864 19.5946C152.085 19.7527 152.371 19.8319 152.722 19.8319C152.839 19.8319 152.985 19.8138 153.161 19.7778C153.337 19.7415 153.534 19.6669 153.755 19.5536C153.976 19.4408 154.212 19.2734 154.465 19.0519C154.716 18.83 154.973 18.534 155.234 18.1629L156.572 19.4114C156.068 20.1532 155.563 20.7275 155.059 21.1346C154.554 21.5416 154.073 21.84 153.613 22.0297C153.154 22.2199 152.736 22.3327 152.357 22.3691C151.979 22.405 151.664 22.4232 151.412 22.4232C151.105 22.4232 150.789 22.3985 150.461 22.3486C150.134 22.2987 149.81 22.2064 149.492 22.0707C149.173 21.9351 148.872 21.743 148.59 21.494C148.307 21.2455 148.056 20.922 147.836 20.5238C147.616 20.1261 147.443 19.6445 147.317 19.079C147.191 18.5139 147.129 17.8468 147.129 17.0775L147.169 10.3752L145.264 10.4022Z" fill="black"/>
<path d="M156.623 12.1053C156.623 11.5724 156.725 11.04 156.928 10.5071C157.13 9.97376 157.443 9.49543 157.866 9.0707C158.29 8.64646 158.83 8.301 159.488 8.03432C160.145 7.76808 160.928 7.63477 161.838 7.63477C162.093 7.63477 162.369 7.65293 162.665 7.68886C162.962 7.72519 163.26 7.78162 163.561 7.85855C163.862 7.93549 164.154 8.03292 164.436 8.14992C164.719 8.26786 164.974 8.40775 165.202 8.57092H165.229L165.188 7.78396H167.296V12.6876H165.472C165.391 12.2093 165.24 11.7785 165.02 11.3953C164.799 11.0116 164.522 10.6871 164.189 10.4204C163.856 10.1547 163.475 9.94953 163.047 9.80501C162.619 9.66045 162.158 9.5882 161.663 9.5882C161.428 9.5882 161.201 9.61526 160.98 9.66931C160.76 9.7239 160.564 9.80965 160.392 9.92669C160.222 10.0442 160.087 10.1952 159.987 10.3803C159.888 10.565 159.839 10.7929 159.839 11.0638C159.839 11.3883 159.924 11.6568 160.095 11.869C160.266 12.0806 160.505 12.2634 160.812 12.4168C161.118 12.5706 161.475 12.7124 161.885 12.8433C162.295 12.9739 162.739 13.1207 163.216 13.283C163.919 13.5268 164.567 13.793 165.161 14.0816C165.756 14.3702 166.27 14.7063 166.702 15.0896C167.134 15.4733 167.474 15.9111 167.722 16.4029C167.969 16.8943 168.093 17.465 168.093 18.1144C168.093 18.8417 167.951 19.4758 167.668 20.0166C167.384 20.5579 167.008 21.0054 166.54 21.3602C166.071 21.7145 165.535 21.9803 164.932 22.1575C164.328 22.3346 163.702 22.4232 163.054 22.4232C162.656 22.4232 162.257 22.3957 161.858 22.3412C161.46 22.2861 161.08 22.2106 160.717 22.1146C160.355 22.018 160.022 21.902 159.718 21.7644C159.415 21.6269 159.155 21.4763 158.938 21.3113H158.91L159.028 22.1654H156.921L156.812 17.3703H158.447C158.484 17.7941 158.624 18.1914 158.867 18.5611C159.109 18.9312 159.425 19.2515 159.817 19.5219C160.208 19.7928 160.667 20.0049 161.194 20.1583C161.72 20.3117 162.286 20.3882 162.892 20.3882C163.117 20.3882 163.344 20.3611 163.574 20.3071C163.804 20.253 164.009 20.1695 164.189 20.0567C164.369 19.9438 164.515 19.8017 164.628 19.6306C164.74 19.459 164.797 19.2515 164.797 19.0077C164.797 18.7461 164.727 18.5228 164.587 18.3382C164.447 18.1531 164.243 17.9816 163.973 17.8235C163.702 17.6659 163.367 17.5102 162.966 17.3568C162.566 17.2034 162.104 17.023 161.581 16.815C161.005 16.5899 160.424 16.3577 159.839 16.1185C159.253 15.8794 158.722 15.5885 158.245 15.2453C157.767 14.9026 157.378 14.4807 157.076 13.98C156.774 13.4793 156.623 12.8545 156.623 12.1053Z" fill="black"/>
<path d="M169.13 15.3274C169.13 14.2872 169.306 13.2993 169.657 12.3631C170.009 11.427 170.499 10.6106 171.13 9.9141C171.76 9.21755 172.517 8.66368 173.4 8.25204C174.282 7.84034 175.26 7.63477 176.332 7.63477C177.222 7.63477 178.008 7.74291 178.688 7.96017C179.368 8.17744 179.936 8.46229 180.391 8.81476C180.846 9.16769 181.188 9.57282 181.418 10.0293C181.647 10.4861 181.762 10.9584 181.762 11.447C181.762 11.7277 181.718 11.9944 181.63 12.2475C181.542 12.5012 181.412 12.7226 181.241 12.9124C181.069 13.1026 180.859 13.2518 180.608 13.3599C180.358 13.4685 180.075 13.5231 179.761 13.5231C179.408 13.5231 179.116 13.4643 178.885 13.3464C178.653 13.2289 178.463 13.0821 178.315 12.9058C178.167 12.7291 178.063 12.5347 178.002 12.3221C177.942 12.11 177.912 11.9086 177.912 11.7184C177.912 11.5557 177.94 11.3589 177.995 11.1281C178.051 10.8978 178.139 10.6918 178.259 10.5109C178.16 10.33 178.031 10.1808 177.872 10.0633C177.714 9.9458 177.546 9.8507 177.37 9.77844C177.194 9.70618 177.017 9.65627 176.84 9.62925C176.664 9.60173 176.507 9.5882 176.372 9.5882C175.903 9.5882 175.475 9.69499 175.088 9.90708C174.701 10.1197 174.366 10.4363 174.082 10.8568C173.798 11.2773 173.577 11.7953 173.42 12.4102C173.262 13.0256 173.184 13.7357 173.184 14.5404C173.184 15.2462 173.249 15.9246 173.38 16.5759C173.51 17.2267 173.724 17.8016 174.021 18.2985C174.318 18.7965 174.71 19.1942 175.197 19.4926C175.683 19.7914 176.282 19.9406 176.994 19.9406C177.371 19.9406 177.751 19.8884 178.133 19.7844C178.515 19.6804 178.881 19.5359 179.231 19.3504C179.58 19.1648 179.914 18.941 180.231 18.6785C180.549 18.4165 180.832 18.127 181.081 17.8105L182.351 19.045C181.847 19.7415 181.326 20.3094 180.788 20.7476C180.25 21.1868 179.706 21.5304 179.156 21.7789C178.606 22.0274 178.061 22.1971 177.52 22.2875C176.98 22.378 176.453 22.4232 175.94 22.4232C175.003 22.4232 174.122 22.2652 173.298 21.9486C172.474 21.632 171.754 21.1705 171.137 20.5644C170.52 19.9588 170.031 19.217 169.671 18.3396C169.311 17.4622 169.13 16.4584 169.13 15.3274Z" fill="black"/>
<path d="M182.408 3.93064V1.78697C183.047 1.78697 183.612 1.76134 184.104 1.70958C184.594 1.65783 185.013 1.59348 185.36 1.5161C185.707 1.43872 185.986 1.35477 186.198 1.26435C186.409 1.17437 186.564 1.08624 186.664 1H188.163V9.18121C188.433 8.9644 188.742 8.763 189.089 8.57743C189.435 8.39236 189.791 8.22963 190.156 8.0893C190.52 7.94897 190.881 7.83799 191.237 7.75688C191.592 7.67531 191.91 7.63476 192.189 7.63476C193.036 7.63476 193.754 7.75454 194.344 7.9942C194.933 8.23382 195.416 8.60261 195.789 9.10005C196.163 9.59754 196.436 10.2353 196.607 11.013C196.778 11.7911 196.863 12.7137 196.863 13.7809V17.5121C196.863 17.6477 196.861 17.8105 196.857 18.0002C196.852 18.1904 196.845 18.3937 196.836 18.6109C196.827 18.8277 196.816 19.052 196.803 19.2823C196.789 19.5131 196.773 19.7326 196.756 19.9406L198.552 19.859V21.9756H191.298V20.1439C191.685 20.1439 191.988 20.0856 192.209 19.9681C192.43 19.8511 192.594 19.6842 192.702 19.4674C192.811 19.2511 192.878 18.9918 192.905 18.6897C192.932 18.3876 192.946 18.0515 192.946 17.6813L192.932 13.7306C192.923 12.5128 192.738 11.6195 192.378 11.0512C192.018 10.4833 191.455 10.1989 190.689 10.1989C190.212 10.2078 189.75 10.3099 189.305 10.5043C188.859 10.6987 188.478 10.936 188.163 11.2163V17.5121C188.163 17.6477 188.161 17.8105 188.156 18.0002C188.152 18.1904 188.145 18.3937 188.136 18.6109C188.127 18.8277 188.116 19.052 188.102 19.2823C188.089 19.5131 188.073 19.7326 188.055 19.9406L189.852 19.859V21.9756H182.597V20.1439C182.984 20.1439 183.288 20.0861 183.509 19.9695C183.73 19.8534 183.894 19.6879 184.002 19.473C184.11 19.2585 184.178 19.0012 184.205 18.7014C184.232 18.4016 184.246 18.0687 184.246 17.7018V6.2776C184.246 5.94329 184.252 5.55866 184.266 5.12462C184.279 4.69058 184.308 4.2654 184.353 3.84903L182.408 3.93064Z" fill="black"/>
<path d="M199.238 15.056C199.238 14.0793 199.402 13.1455 199.73 12.2545C200.058 11.3636 200.522 10.5743 201.123 9.88658C201.725 9.19939 202.45 8.65204 203.3 8.24502C204.15 7.838 205.097 7.63477 206.142 7.63477C206.655 7.63477 207.166 7.68 207.675 7.77042C208.184 7.86089 208.67 8.01238 209.134 8.22497C209.598 8.4376 210.03 8.71544 210.431 9.05906C210.832 9.40312 211.176 9.82831 211.465 10.3346C211.762 10.8414 211.991 11.4382 212.154 12.1254C212.316 12.7767 212.392 13.5231 212.383 14.3642C212.383 14.4094 212.383 14.4546 212.383 14.4998L203.291 14.6626C203.291 15.4225 203.361 16.126 203.501 16.7726C203.64 17.4193 203.863 17.9755 204.169 18.4412C204.476 18.907 204.876 19.2734 205.372 19.5401C205.867 19.8072 206.475 19.9406 207.195 19.9406C207.474 19.9406 207.786 19.9042 208.128 19.832C208.47 19.7597 208.819 19.6422 209.175 19.479C209.531 19.3163 209.888 19.1014 210.249 18.8347C210.609 18.5681 210.946 18.2403 211.262 17.851L212.505 19.0315C212.009 19.7462 211.483 20.3252 210.924 20.7681C210.366 21.2115 209.805 21.5551 209.242 21.7994C208.679 22.0437 208.125 22.2083 207.581 22.2945C207.036 22.3803 206.529 22.4232 206.061 22.4232C205.043 22.4232 204.116 22.2516 203.28 21.9076C202.444 21.5639 201.725 21.0712 201.123 20.4287C200.522 19.7867 200.058 19.0133 199.73 18.1088C199.402 17.2043 199.238 16.1871 199.238 15.056ZM203.48 12.7091H208.574C208.556 12.1389 208.488 11.6554 208.371 11.2573C208.254 10.8591 208.094 10.536 207.891 10.2871C207.688 10.0386 207.452 9.85956 207.182 9.75092C206.912 9.64274 206.615 9.5882 206.29 9.5882C205.885 9.5882 205.522 9.66513 205.203 9.819C204.883 9.97282 204.606 10.1855 204.372 10.4568C204.138 10.7281 203.946 11.0559 203.798 11.4405C203.649 11.8247 203.543 12.2475 203.48 12.7091Z" fill="black"/>
<path d="M94.8273 46.5067C94.8273 45.9346 94.9308 45.4195 95.1374 44.9621C95.3444 44.5043 95.6299 44.0949 95.9939 43.7341C96.3578 43.3732 96.7873 43.0613 97.2816 42.797C97.776 42.5331 98.309 42.313 98.8799 42.1373C99.4505 41.961 100.047 41.8244 100.667 41.7274C101.287 41.631 101.908 41.5685 102.528 41.5405V40.0542C102.528 39.6747 102.496 39.325 102.433 39.0057C102.37 38.6863 102.261 38.4108 102.107 38.1791C101.954 37.9478 101.75 37.7674 101.497 37.6373C101.262 37.517 100.973 37.4569 100.629 37.4569C100.602 37.4569 100.575 37.4569 100.548 37.4569C100.169 37.4746 99.8159 37.5511 99.4909 37.6849C99.1655 37.8191 98.8855 38.0071 98.6506 38.2481C98.7946 38.4005 98.8869 38.5749 98.9278 38.7716C98.9681 38.9679 98.9881 39.1334 98.9881 39.2677C98.9881 39.4644 98.9496 39.663 98.8721 39.8644C98.7946 40.0659 98.6734 40.2491 98.5086 40.4146C98.3442 40.5801 98.1358 40.7162 97.8837 40.8235C97.6321 40.9307 97.3318 40.9843 96.9831 40.9843C96.6925 40.9755 96.4312 40.919 96.1986 40.8146C95.966 40.7111 95.7725 40.5754 95.6174 40.4076C95.4624 40.2407 95.344 40.0439 95.2618 39.8178C95.1792 39.5917 95.1383 39.3474 95.1383 39.0849C95.1383 38.5423 95.2962 38.0448 95.6123 37.5926C95.9284 37.1403 96.3625 36.7539 96.9144 36.4326C97.4664 36.1114 98.1154 35.8624 98.8609 35.6862C99.6065 35.51 100.404 35.4219 101.253 35.4219C102.067 35.4219 102.792 35.5282 103.429 35.7408C104.066 35.9534 104.604 36.282 105.043 36.7259C105.481 37.1697 105.815 37.7343 106.046 38.4183C106.276 39.1027 106.392 39.9167 106.392 40.8598C106.392 41.3144 106.389 41.714 106.385 42.0589C106.38 42.4039 106.378 42.7317 106.378 43.0422C106.378 43.3527 106.376 43.6888 106.372 44.0506C106.367 44.4124 106.365 44.8287 106.365 45.2991C106.365 45.4348 106.362 45.5975 106.358 45.7873C106.353 45.9775 106.349 46.1808 106.344 46.398C106.34 46.6148 106.331 46.8391 106.317 47.0694C106.304 47.3002 106.288 47.5197 106.269 47.7277L108.053 47.6461V49.7627H102.813C102.776 49.5007 102.752 49.2811 102.738 49.1049C102.724 48.9282 102.713 48.7226 102.704 48.4872H102.677C102.042 49.1207 101.38 49.566 100.691 49.8238C100.002 50.0816 99.2899 50.2103 98.5555 50.2103C97.9673 50.2103 97.4418 50.1175 96.9785 49.9324C96.5157 49.7469 96.1257 49.4867 95.8096 49.152C95.493 48.8177 95.2502 48.4261 95.0812 47.9785C94.9118 47.5309 94.8273 47.0405 94.8273 46.5067ZM98.7453 46.0451C98.7541 46.3076 98.8038 46.529 98.8944 46.7099C98.9844 46.8908 99.0995 47.0405 99.2397 47.1575C99.3799 47.2755 99.5424 47.3612 99.7276 47.4153C99.9129 47.4699 100.105 47.4969 100.304 47.4969C100.738 47.4969 101.14 47.4065 101.511 47.2256C101.882 47.0447 102.211 46.7962 102.501 46.4791L102.514 43.3723C101.99 43.4268 101.498 43.5215 101.037 43.6571C100.575 43.7928 100.176 43.9718 99.8367 44.1933C99.4974 44.4147 99.2309 44.6795 99.0369 44.9868C98.8424 45.2945 98.7453 45.6474 98.7453 46.0451Z" fill="black"/>
<path d="M108.226 38.5287V36.385C108.866 36.385 109.432 36.3594 109.924 36.3077C110.415 36.2559 110.834 36.1916 111.181 36.1142C111.529 36.0368 111.809 35.9528 112.02 35.8624C112.232 35.7725 112.388 35.6843 112.487 35.5981H113.995V44.1052C113.995 45.3262 114.151 46.2214 114.462 46.7915C114.774 47.3612 115.282 47.6461 115.987 47.6461C116.212 47.6461 116.447 47.6121 116.691 47.5445C116.935 47.4764 117.174 47.3817 117.409 47.2596C117.644 47.1375 117.868 46.9948 118.08 46.8321C118.292 46.6694 118.48 46.4978 118.642 46.3165V40.8757C118.642 40.5414 118.649 40.1567 118.662 39.7227C118.676 39.2887 118.705 38.8635 118.75 38.4472L116.805 38.5287V36.385C117.444 36.385 118.007 36.3594 118.493 36.3077C118.98 36.2559 119.396 36.1916 119.743 36.1142C120.09 36.0368 120.369 35.9528 120.581 35.8624C120.792 35.7725 120.948 35.6843 121.047 35.5981H122.56V45.2991C122.551 45.8143 122.542 46.1808 122.533 46.398C122.524 46.6148 122.513 46.8391 122.499 47.0694C122.486 47.3002 122.47 47.5197 122.452 47.7277L124.249 47.6461V49.7627H118.993L118.845 48.3109H118.818C118.538 48.5552 118.246 48.7925 117.944 49.0233C117.641 49.2541 117.32 49.4573 116.982 49.6341C116.644 49.8103 116.282 49.9502 115.898 50.0546C115.515 50.1581 115.101 50.2103 114.659 50.2103C113.841 50.2103 113.143 50.0905 112.563 49.8508C111.984 49.6112 111.51 49.2429 111.142 48.745C110.773 48.248 110.504 47.6121 110.333 46.8391C110.163 46.0656 110.077 45.1406 110.077 44.0641V40.8757C110.077 40.5414 110.084 40.1567 110.097 39.7227C110.11 39.2887 110.14 38.8635 110.185 38.4472L108.226 38.5287Z" fill="black"/>
<path d="M124.57 38.1893V35.8694C125.047 35.8605 125.493 35.7402 125.908 35.5099C126.322 35.2792 126.693 34.992 127.022 34.6484C127.351 34.3047 127.63 33.929 127.86 33.5219C128.089 33.115 128.258 32.735 128.367 32.3825H130.406L130.393 35.8694H133.933V38.013L130.393 38.0811C130.384 39.3926 130.377 40.4803 130.372 41.3437C130.368 42.2076 130.364 42.8999 130.359 43.4198C130.354 43.9401 130.352 44.3107 130.352 44.5322C130.352 44.7541 130.352 44.8828 130.352 44.9191C130.352 45.2446 130.372 45.5681 130.413 45.8889C130.454 46.2101 130.535 46.4996 130.657 46.7574C130.778 47.0153 130.949 47.2232 131.17 47.3817C131.39 47.5398 131.676 47.619 132.027 47.619C132.144 47.619 132.291 47.6008 132.467 47.5649C132.643 47.5286 132.84 47.454 133.061 47.3407C133.282 47.2278 133.518 47.0605 133.771 46.839C134.022 46.6171 134.279 46.321 134.54 45.95L135.878 47.1985C135.374 47.9403 134.869 48.5146 134.365 48.9216C133.86 49.3286 133.379 49.627 132.919 49.8168C132.46 50.007 132.041 50.1198 131.663 50.1562C131.285 50.1921 130.969 50.2103 130.717 50.2103C130.411 50.2103 130.094 50.1855 129.767 50.1357C129.439 50.0858 129.116 49.9935 128.797 49.8578C128.478 49.7221 128.178 49.5301 127.895 49.2811C127.613 49.0326 127.361 48.7091 127.141 48.3109C126.921 47.9132 126.749 47.4316 126.623 46.8661C126.497 46.301 126.434 45.6339 126.434 44.8646L126.475 38.1622L124.57 38.1893Z" fill="black"/>
<path d="M135.713 43.1355C135.713 41.9853 135.897 40.9354 136.266 39.9847C136.635 39.0341 137.137 38.2215 137.771 37.5473C138.405 36.8727 139.145 36.3496 139.992 35.9785C140.837 35.6074 141.732 35.4219 142.677 35.4219C143.665 35.4219 144.583 35.5846 145.432 35.9105C146.28 36.2368 147.014 36.7072 147.634 37.3226C148.254 37.9385 148.741 38.6877 149.096 39.5703C149.451 40.4533 149.628 41.4515 149.628 42.5648C149.628 43.7308 149.46 44.7859 149.123 45.7299C148.786 46.6745 148.315 47.4787 147.708 48.1431C147.102 48.8074 146.377 49.318 145.534 49.6751C144.689 50.0317 143.764 50.2103 142.758 50.2103C141.76 50.2103 140.831 50.0457 139.971 49.7161C139.112 49.386 138.367 48.9161 137.738 48.3063C137.108 47.6965 136.613 46.9556 136.253 46.0833C135.893 45.2115 135.713 44.2287 135.713 43.1355ZM139.766 42.3881C139.766 43.1038 139.822 43.8124 139.935 44.5141C140.048 45.2162 140.229 45.8433 140.477 46.3957C140.725 46.9482 141.045 47.3962 141.438 47.7403C141.831 48.0848 142.307 48.2569 142.867 48.2569C143.418 48.248 143.866 48.0941 144.214 47.7948C144.561 47.496 144.837 47.109 145.04 46.6335C145.243 46.1579 145.383 45.626 145.46 45.0371C145.537 44.4488 145.575 43.8553 145.575 43.2576C145.575 42.5694 145.527 41.8743 145.433 41.1727C145.338 40.4705 145.176 39.8388 144.945 39.277C144.715 38.7157 144.412 38.2583 144.038 37.9054C143.664 37.552 143.192 37.3753 142.623 37.3753C142.082 37.3935 141.63 37.5497 141.269 37.8443C140.908 38.1385 140.615 38.5213 140.389 38.9922C140.163 39.463 140.003 39.995 139.908 40.588C139.813 41.1815 139.766 41.7815 139.766 42.3881Z" fill="black"/>
<path d="M150.22 31.7178V29.5741C150.859 29.5741 151.424 29.5484 151.915 29.4967C152.406 29.4449 152.825 29.3806 153.171 29.3032C153.518 29.2258 153.798 29.1419 154.009 29.0515C154.221 28.9614 154.376 28.8734 154.475 28.7871H155.975V45.2991C155.975 45.4348 155.973 45.5975 155.968 45.7873C155.963 45.9775 155.957 46.1807 155.948 46.398C155.939 46.6148 155.928 46.8391 155.914 47.0694C155.901 47.3002 155.885 47.5197 155.867 47.7277L157.664 47.6461V49.7627H150.409V47.9309C150.796 47.9309 151.1 47.8732 151.321 47.7566C151.542 47.6405 151.706 47.475 151.814 47.2601C151.922 47.0456 151.989 46.7883 152.016 46.4885C152.043 46.1887 152.057 45.8558 152.057 45.4889V34.0647C152.057 33.7304 152.064 33.3458 152.077 32.9117C152.091 32.4777 152.12 32.0525 152.165 31.6361L150.22 31.7178Z" fill="black"/>
<path d="M158.512 43.1355C158.512 41.9853 158.696 40.9354 159.065 39.9847C159.434 39.0341 159.936 38.2215 160.57 37.5473C161.204 36.8727 161.944 36.3496 162.791 35.9785C163.636 35.6074 164.531 35.4219 165.476 35.4219C166.464 35.4219 167.382 35.5846 168.231 35.9105C169.079 36.2368 169.813 36.7072 170.433 37.3226C171.053 37.9385 171.54 38.6877 171.895 39.5703C172.25 40.4533 172.427 41.4515 172.427 42.5648C172.427 43.7308 172.258 44.7859 171.922 45.7299C171.585 46.6745 171.114 47.4787 170.507 48.1431C169.901 48.8074 169.176 49.318 168.332 49.6751C167.488 50.0317 166.563 50.2103 165.557 50.2103C164.559 50.2103 163.629 50.0457 162.77 49.7161C161.911 49.386 161.166 48.9161 160.537 48.3063C159.907 47.6965 159.412 46.9556 159.052 46.0833C158.692 45.2115 158.512 44.2287 158.512 43.1355ZM162.565 42.3881C162.565 43.1038 162.621 43.8124 162.734 44.5141C162.847 45.2162 163.028 45.8433 163.276 46.3957C163.524 46.9482 163.844 47.3962 164.237 47.7403C164.63 48.0848 165.106 48.2569 165.666 48.2569C166.217 48.248 166.665 48.0941 167.013 47.7948C167.36 47.496 167.636 47.109 167.839 46.6335C168.042 46.1579 168.182 45.626 168.259 45.0371C168.336 44.4488 168.374 43.8553 168.374 43.2576C168.374 42.5694 168.326 41.8743 168.232 41.1727C168.137 40.4705 167.975 39.8388 167.744 39.277C167.514 38.7157 167.211 38.2583 166.837 37.9054C166.463 37.552 165.991 37.3753 165.422 37.3753C164.881 37.3935 164.429 37.5497 164.068 37.8443C163.707 38.1385 163.414 38.5213 163.188 38.9922C162.962 39.463 162.802 39.995 162.707 40.588C162.612 41.1815 162.565 41.7815 162.565 42.3881Z" fill="black"/>
<path d="M173.586 38.5287V36.3851C174.226 36.3851 174.791 36.3594 175.282 36.3077C175.773 36.2559 176.191 36.1916 176.538 36.1142C176.885 36.0368 177.164 35.9529 177.376 35.8624C177.587 35.7725 177.743 35.6843 177.842 35.5981H179.206L179.328 36.9417H179.369C179.639 36.7375 179.936 36.5417 180.26 36.3552C180.584 36.1687 180.915 36.006 181.253 35.8685C181.591 35.7305 181.942 35.6219 182.307 35.5417C182.672 35.4619 183.034 35.4219 183.394 35.4219C184.241 35.4219 184.941 35.5696 185.495 35.8648C186.049 36.1603 186.493 36.6168 186.826 37.234C187.159 36.9571 187.51 36.7063 187.88 36.4825C188.249 36.2587 188.629 36.0685 189.021 35.9119C189.413 35.7552 189.805 35.6345 190.197 35.5491C190.588 35.4643 190.969 35.4219 191.338 35.4219C192.076 35.4219 192.729 35.5235 193.297 35.7268C193.864 35.9305 194.337 36.2606 194.715 36.7175C195.094 37.1744 195.38 37.7688 195.573 38.5017C195.767 39.2341 195.864 40.1344 195.864 41.2015V45.2991C195.864 45.4348 195.862 45.5975 195.857 45.7873C195.852 45.9775 195.846 46.1808 195.837 46.398C195.828 46.6148 195.816 46.8391 195.803 47.0694C195.79 47.3002 195.774 47.5197 195.756 47.7277L197.552 47.6461V49.7628H190.568V47.931C190.883 47.931 191.133 47.8727 191.318 47.7552C191.502 47.6382 191.642 47.4713 191.736 47.2545C191.831 47.0381 191.89 46.7789 191.912 46.4768C191.935 46.1747 191.946 45.8386 191.946 45.4684L191.932 41.2198C191.932 40.5974 191.876 40.0789 191.763 39.664C191.651 39.2491 191.498 38.9199 191.304 38.6761C191.111 38.4327 190.876 38.2611 190.602 38.1618C190.327 38.0625 190.023 38.0131 189.69 38.0131C189.221 38.0224 188.798 38.1129 188.42 38.2844C188.042 38.4565 187.695 38.6691 187.38 38.9222C187.452 39.3022 187.508 39.7092 187.549 40.1433C187.589 40.5773 187.609 41.0524 187.609 41.568V45.2991C187.609 45.4348 187.607 45.5975 187.602 45.7873C187.598 45.9775 187.591 46.1808 187.582 46.398C187.573 46.6148 187.562 46.8391 187.549 47.0694C187.535 47.3002 187.519 47.5197 187.501 47.7277L189.298 47.6461V49.7628H182.179V47.931C182.529 47.931 182.807 47.8727 183.009 47.7552C183.212 47.6382 183.363 47.4713 183.462 47.2545C183.561 47.0381 183.624 46.7789 183.651 46.4768C183.678 46.1747 183.691 45.8386 183.691 45.4684L183.678 41.1386C183.678 40.5344 183.628 40.029 183.529 39.6234C183.43 39.2174 183.293 38.8929 183.117 38.649C182.942 38.4057 182.73 38.2341 182.483 38.1348C182.235 38.0355 181.953 37.9861 181.638 37.9861C181.197 37.9861 180.778 38.0877 180.381 38.2914C179.985 38.4947 179.639 38.732 179.341 39.0033V45.2991C179.341 45.4348 179.339 45.5975 179.335 45.7873C179.33 45.9775 179.323 46.1808 179.314 46.398C179.305 46.6148 179.294 46.8391 179.281 47.0694C179.267 47.3002 179.251 47.5197 179.233 47.7277L180.895 47.6461V49.7628H173.776V47.931C174.163 47.931 174.466 47.8727 174.687 47.7552C174.908 47.6382 175.072 47.4713 175.18 47.255C175.289 47.0381 175.356 46.7789 175.383 46.4768C175.41 46.1747 175.424 45.8386 175.424 45.4689V40.8015C175.424 40.4677 175.431 40.0961 175.444 39.6854C175.457 39.2751 175.487 38.8625 175.532 38.4472L173.586 38.5287Z" fill="black"/>
<path d="M197.293 31.7178V29.5741C197.933 29.5741 198.498 29.5484 198.988 29.4967C199.48 29.4449 199.898 29.3806 200.245 29.3032C200.592 29.2258 200.871 29.1419 201.083 29.0515C201.294 28.9614 201.449 28.8734 201.549 28.7871H203.048V36.9142C203.67 36.3533 204.302 35.9645 204.946 35.7473C205.59 35.53 206.201 35.4219 206.777 35.4219C207.605 35.4219 208.362 35.5869 209.047 35.917C209.731 36.2471 210.319 36.7175 210.809 37.3278C211.301 37.9385 211.681 38.6779 211.951 39.546C212.221 40.4146 212.356 41.3871 212.356 42.4631C212.356 43.5849 212.203 44.6185 211.897 45.5635C211.591 46.509 211.147 47.3253 210.567 48.0125C209.985 48.7002 209.281 49.2382 208.452 49.627C207.624 50.0159 206.687 50.2103 205.642 50.2103C205.39 50.2103 205.102 50.1903 204.777 50.1492C204.453 50.1087 204.111 50.0271 203.751 49.9054C203.391 49.7832 203.028 49.6112 202.663 49.3898C202.298 49.1683 201.954 48.8806 201.63 48.5282H201.603L200.806 49.7627H199.13V34.0647C199.13 33.7304 199.137 33.3458 199.151 32.9117C199.164 32.4777 199.194 32.0525 199.239 31.6361L197.293 31.7178ZM203.048 45.5975C203.048 46.0856 203.111 46.4955 203.238 46.8255C203.363 47.1556 203.528 47.42 203.73 47.6191C203.933 47.8181 204.16 47.9603 204.413 48.0466C204.665 48.1324 204.917 48.1752 205.169 48.1752C205.773 48.1752 206.275 48.0261 206.676 47.7277C207.076 47.4293 207.398 47.0335 207.642 46.5402C207.885 46.0474 208.056 45.4842 208.155 44.8511C208.254 44.218 208.304 43.5625 208.304 42.8837C208.304 42.2328 208.245 41.6085 208.128 41.0113C208.011 40.4146 207.831 39.8878 207.588 39.4308C207.344 38.9744 207.031 38.6098 206.649 38.3385C206.266 38.0672 205.809 37.9315 205.277 37.9315C204.818 37.9502 204.392 38.0653 204.001 38.2774C203.609 38.4905 203.291 38.7684 203.048 39.112V45.5975Z" fill="black"/>
<path d="M213.38 46.5067C213.38 45.9346 213.484 45.4195 213.69 44.9621C213.898 44.5043 214.183 44.0949 214.547 43.7341C214.911 43.3732 215.34 43.0613 215.835 42.797C216.329 42.5331 216.862 42.313 217.433 42.1373C218.004 41.961 218.6 41.8244 219.22 41.7274C219.84 41.631 220.461 41.5685 221.081 41.5405V40.0542C221.081 39.6747 221.049 39.325 220.986 39.0057C220.923 38.6863 220.814 38.4108 220.66 38.1791C220.507 37.9478 220.303 37.7674 220.05 37.6373C219.815 37.517 219.526 37.4569 219.182 37.4569C219.155 37.4569 219.128 37.4569 219.101 37.4569C218.722 37.4746 218.369 37.5511 218.044 37.6849C217.719 37.8191 217.439 38.0071 217.204 38.2481C217.348 38.4005 217.44 38.5749 217.481 38.7716C217.521 38.9679 217.541 39.1334 217.541 39.2677C217.541 39.4644 217.503 39.663 217.425 39.8644C217.348 40.0659 217.226 40.2491 217.062 40.4146C216.897 40.5801 216.689 40.7162 216.437 40.8235C216.185 40.9307 215.885 40.9843 215.536 40.9843C215.246 40.9755 214.984 40.919 214.752 40.8146C214.519 40.7111 214.326 40.5754 214.17 40.4076C214.015 40.2407 213.897 40.0439 213.815 39.8178C213.732 39.5917 213.691 39.3474 213.691 39.0849C213.691 38.5423 213.849 38.0448 214.165 37.5926C214.481 37.1403 214.916 36.7539 215.468 36.4326C216.02 36.1114 216.668 35.8624 217.414 35.6862C218.16 35.51 218.957 35.4219 219.806 35.4219C220.62 35.4219 221.345 35.5282 221.982 35.7408C222.619 35.9534 223.157 36.282 223.596 36.7259C224.034 37.1697 224.369 37.7343 224.599 38.4183C224.83 39.1027 224.945 39.9167 224.945 40.8598C224.945 41.3144 224.942 41.714 224.938 42.0589C224.934 42.4039 224.931 42.7317 224.931 43.0422C224.931 43.3527 224.929 43.6888 224.925 44.0506C224.92 44.4124 224.918 44.8287 224.918 45.2991C224.918 45.4348 224.915 45.5975 224.911 45.7873C224.906 45.9775 224.902 46.1808 224.897 46.398C224.893 46.6148 224.884 46.8391 224.87 47.0694C224.857 47.3002 224.841 47.5197 224.823 47.7277L226.606 47.6461V49.7627H221.366C221.329 49.5007 221.305 49.2811 221.291 49.1049C221.277 48.9282 221.266 48.7226 221.257 48.4872H221.23C220.595 49.1207 219.933 49.566 219.244 49.8238C218.555 50.0816 217.843 50.2103 217.109 50.2103C216.52 50.2103 215.995 50.1175 215.532 49.9324C215.069 49.7469 214.679 49.4867 214.363 49.152C214.046 48.8177 213.803 48.4261 213.634 47.9785C213.465 47.5309 213.38 47.0405 213.38 46.5067ZM217.298 46.0451C217.307 46.3076 217.357 46.529 217.447 46.7099C217.538 46.8908 217.653 47.0405 217.793 47.1575C217.933 47.2755 218.095 47.3612 218.281 47.4153C218.466 47.4699 218.658 47.4969 218.857 47.4969C219.291 47.4969 219.693 47.4065 220.064 47.2256C220.435 47.0447 220.764 46.7962 221.054 46.4791L221.067 43.3723C220.543 43.4268 220.051 43.5215 219.59 43.6571C219.128 43.7928 218.729 43.9718 218.39 44.1933C218.05 44.4147 217.784 44.6795 217.59 44.9868C217.395 45.2945 217.298 45.6474 217.298 46.0451Z" fill="black"/>
<path d="M227.306 38.5693V36.4256C227.945 36.4256 228.511 36.3986 229.001 36.3445C229.492 36.29 229.911 36.2224 230.258 36.1408C230.604 36.0592 230.884 35.9711 231.096 35.8764C231.307 35.7813 231.462 35.6885 231.562 35.5981H232.926L233.048 38.0159H233.088C233.268 37.7693 233.487 37.4947 233.744 37.1926C234 36.8905 234.297 36.6088 234.635 36.3482C234.973 36.0876 235.344 35.868 235.75 35.6895C236.155 35.5109 236.596 35.4219 237.073 35.4219C237.398 35.4219 237.706 35.4676 237.999 35.5589C238.292 35.6503 238.548 35.7897 238.769 35.9771C238.99 36.1645 239.165 36.4047 239.296 36.6974C239.427 36.9897 239.492 37.3418 239.492 37.7534C239.492 37.9679 239.456 38.1888 239.384 38.4164C239.311 38.6439 239.199 38.8518 239.046 39.0393C238.893 39.2267 238.693 39.3805 238.445 39.5013C238.197 39.6215 237.898 39.6822 237.546 39.6822C237.358 39.6822 237.164 39.6575 236.966 39.609C236.767 39.56 236.585 39.4761 236.418 39.3563C236.252 39.2365 236.108 39.0742 235.986 38.8705C235.865 38.6663 235.79 38.4047 235.763 38.0854C235.484 38.0854 235.203 38.1781 234.919 38.3637C234.635 38.5492 234.369 38.78 234.122 39.056C233.874 39.332 233.656 39.6281 233.466 39.9451C233.277 40.2617 233.142 40.5465 233.061 40.8001V45.3103C233.061 45.4455 233.059 45.6073 233.055 45.7966C233.05 45.9854 233.043 46.1882 233.034 46.4041C233.025 46.6204 233.014 46.8433 233 47.0727C232.987 47.3025 232.971 47.5207 232.953 47.7277L234.75 47.6461V49.7628H227.495V47.931C227.882 47.931 228.186 47.8727 228.407 47.7561C228.628 47.6396 228.792 47.4736 228.9 47.2582C229.008 47.0428 229.076 46.7855 229.103 46.4848C229.13 46.184 229.144 45.8502 229.144 45.4824V40.8407C229.144 40.5074 229.15 40.1353 229.164 39.7255C229.177 39.3152 229.206 38.9027 229.252 38.4882L227.306 38.5693Z" fill="black"/>
<path d="M239.651 43.169C239.651 42.0473 239.815 41.0137 240.144 40.0687C240.473 39.1236 240.937 38.3073 241.536 37.6196C242.135 36.9324 242.855 36.3939 243.698 36.0051C244.539 35.6162 245.474 35.4219 246.501 35.4219C247.014 35.4219 247.467 35.4736 247.858 35.5776C248.25 35.682 248.617 35.7971 248.96 35.9235V34.0787C248.96 33.943 248.962 33.7798 248.966 33.5901C248.971 33.3999 248.977 33.1966 248.987 32.9793C248.995 32.7625 249.007 32.5388 249.02 32.308C249.034 32.0772 249.049 31.8581 249.068 31.6497L247.122 31.7312V29.6146C247.761 29.6146 248.326 29.5876 248.818 29.5335C249.308 29.479 249.727 29.4113 250.074 29.3298C250.421 29.2482 250.7 29.16 250.912 29.0654C251.123 28.9703 251.278 28.8775 251.378 28.7871H252.877V45.2991C252.877 45.4348 252.875 45.5975 252.871 45.7873C252.866 45.9775 252.859 46.1807 252.85 46.398C252.841 46.6148 252.83 46.8391 252.816 47.0694C252.803 47.3002 252.787 47.5197 252.769 47.7277L254.566 47.6461V49.7627H249.311L249.162 48.4736H249.135C248.522 49.1161 247.89 49.566 247.237 49.8238C246.584 50.0816 245.915 50.2103 245.231 50.2103C244.402 50.2103 243.646 50.0452 242.961 49.7152C242.277 49.3851 241.689 48.9147 241.198 48.3044C240.707 47.6937 240.327 46.9542 240.057 46.0856C239.787 45.2176 239.651 44.2455 239.651 43.169ZM243.704 42.735C243.704 43.3336 243.758 43.9275 243.866 44.5173C243.974 45.1071 244.148 45.6353 244.387 46.102C244.625 46.5691 244.933 46.9477 245.312 47.2382C245.69 47.5281 246.145 47.6731 246.677 47.6731C247.145 47.6731 247.581 47.551 247.987 47.3062C248.392 47.0615 248.716 46.7435 248.96 46.3537V37.9735C248.761 37.8378 248.487 37.7175 248.136 37.6131C247.784 37.5091 247.406 37.4569 247.001 37.4569C246.361 37.4751 245.83 37.6359 245.406 37.9399C244.983 38.2439 244.645 38.6429 244.393 39.1367C244.141 39.6313 243.963 40.1913 243.86 40.8169C243.756 41.4426 243.704 42.0823 243.704 42.735Z" fill="black"/>
</g>
<defs>
<clipPath id="clip0_4443_579">
<rect width="255" height="50" fill="white" transform="translate(0 0.5)"/>
</clipPath>
</defs>
</svg>
