<svg width="14" height="19" viewBox="0 0 14 19" fill="none" xmlns="http://www.w3.org/2000/svg">
<path fill-rule="evenodd" clip-rule="evenodd" d="M8.98399 16.3315C10.9088 13.877 13.3333 10.311 13.3333 7.92165C13.3333 3.95961 10.3486 0.747742 6.66667 0.747742C2.98477 0.747742 0 3.95961 0 7.92165C0 10.311 2.42454 13.877 4.34934 16.3315C5.35354 17.612 5.85564 18.2523 6.66667 18.2523C7.47769 18.2523 7.97979 17.612 8.98399 16.3315ZM6.66667 10.7477C5.28595 10.7477 4.16667 9.62845 4.16667 8.24774C4.16667 6.86703 5.28595 5.74774 6.66667 5.74774C8.04738 5.74774 9.16667 6.86703 9.16667 8.24774C9.16667 9.62845 8.04738 10.7477 6.66667 10.7477Z" fill="#FFD000"/>
</svg>
